<svg xmlns="http://www.w3.org/2000/svg" viewBox="0 0 32 32">
  <!-- Body -->
  <ellipse cx="16" cy="18" rx="10" ry="9" fill="#4db8b0" stroke="#0d2137" stroke-width="1.5"/>
  <!-- Body stripes -->
  <ellipse cx="16" cy="14" rx="9" ry="2.5" fill="#7ed4d0" opacity="0.6"/>
  <ellipse cx="16" cy="18" rx="9.5" ry="2" fill="#3aa89e" opacity="0.5"/>
  <ellipse cx="16" cy="22" rx="8" ry="2" fill="#2d9a8f" opacity="0.5"/>
  <!-- Left claw -->
  <path d="M5 11 Q2 8 4 6 Q6 5 7 7 Q8 9 6 11 Z" fill="#4db8b0" stroke="#0d2137" stroke-width="1.2"/>
  <!-- Right claw -->
  <path d="M27 11 Q30 8 28 6 Q26 5 25 7 Q24 9 26 11 Z" fill="#4db8b0" stroke="#0d2137" stroke-width="1.2"/>
  <!-- Left arm -->
  <path d="M6 12 Q8 13 9 15" fill="none" stroke="#0d2137" stroke-width="1.5" stroke-linecap="round"/>
  <!-- Right arm -->
  <path d="M26 12 Q24 13 23 15" fill="none" stroke="#0d2137" stroke-width="1.5" stroke-linecap="round"/>
  <!-- Antennae -->
  <path d="M12 10 Q11 5 13 3" fill="none" stroke="#0d2137" stroke-width="1.2" stroke-linecap="round"/>
  <path d="M20 10 Q21 5 19 3" fill="none" stroke="#0d2137" stroke-width="1.2" stroke-linecap="round"/>
  <!-- Left eye -->
  <circle cx="13" cy="16" r="2" fill="#0d2137"/>
  <circle cx="13.5" cy="15.5" r="0.7" fill="white"/>
  <!-- Right eye -->
  <circle cx="19" cy="16" r="2" fill="#0d2137"/>
  <circle cx="19.5" cy="15.5" r="0.7" fill="white"/>
  <!-- Smile -->
  <path d="M14 20 Q16 21.5 18 20" fill="none" stroke="#0d2137" stroke-width="1" stroke-linecap="round"/>
  <!-- Legs left -->
  <path d="M7 16 Q4 17 3 19" fill="none" stroke="#0d2137" stroke-width="1.2" stroke-linecap="round"/>
  <path d="M7 19 Q4 20 3 22" fill="none" stroke="#0d2137" stroke-width="1.2" stroke-linecap="round"/>
  <path d="M7 22 Q5 23 4 25" fill="none" stroke="#0d2137" stroke-width="1.2" stroke-linecap="round"/>
  <!-- Legs right -->
  <path d="M25 16 Q28 17 29 19" fill="none" stroke="#0d2137" stroke-width="1.2" stroke-linecap="round"/>
  <path d="M25 19 Q28 20 29 22" fill="none" stroke="#0d2137" stroke-width="1.2" stroke-linecap="round"/>
  <path d="M25 22 Q27 23 28 25" fill="none" stroke="#0d2137" stroke-width="1.2" stroke-linecap="round"/>
</svg>
